<mxfile host="app.diagrams.net" modified="2024-03-20T13:31:17.449Z" agent="Mozilla/5.0 (Windows NT 10.0; Win64; x64) AppleWebKit/537.36 (KHTML, like Gecko) Chrome/120.0.0.0 YaBrowser/24.1.0.0 Safari/537.36" version="24.0.7" etag="sPiUpewwdX0GGDJynpHW" type="github">
  <diagram name="Страница — 1" id="ddW9bi-yYWUQW5nvhaBM">
    <mxGraphModel>
      <root>
        <mxCell id="0" />
        <mxCell id="1" parent="0" />
      </root>
    </mxGraphModel>
  </diagram>
</mxfile>
